<svg xmlns="http://www.w3.org/2000/svg" viewBox="0 0 1200 800" width="1200" height="800" role="img" aria-label="Ilustración de un soporte de audio con dos carretes">
  <defs>
    <linearGradient id="background" x2="1" y2="1">
      <stop stop-color="#171d32"/>
      <stop offset="1" stop-color="#30415c"/>
    </linearGradient>
    <linearGradient id="shell" x2="0" y2="1">
      <stop stop-color="#f8e8c6"/>
      <stop offset="1" stop-color="#decba9"/>
    </linearGradient>
    <pattern id="grooves" width="20" height="20" patternUnits="userSpaceOnUse">
      <path d="M0 19h20" stroke="#fff" stroke-opacity=".08"/>
    </pattern>
  </defs>
  <rect width="1200" height="800" fill="url(#background)"/>
  <rect width="1200" height="800" fill="url(#grooves)"/>
  <ellipse cx="600" cy="685" rx="465" ry="48" fill="#050817" opacity=".38"/>
  <g transform="rotate(-5 600 400)">
    <rect x="130" y="175" width="940" height="450" rx="44" fill="#0d1322"/>
    <rect x="146" y="190" width="908" height="418" rx="32" fill="url(#shell)"/>
    <rect x="176" y="218" width="848" height="205" rx="18" fill="#e65e55"/>
    <rect x="210" y="241" width="780" height="158" rx="13" fill="#f2dfbe"/>
    <rect x="260" y="268" width="680" height="106" rx="15" fill="#29344c"/>
    <rect x="279" y="283" width="642" height="76" rx="10" fill="#adc3c4"/>
    <path d="M411 320h378" stroke="#272737" stroke-width="17" opacity=".75"/>
    <g fill="#e6e3d6" stroke="#202b3e" stroke-width="12">
      <circle cx="427" cy="321" r="66"/>
      <circle cx="773" cy="321" r="66"/>
    </g>
    <g fill="#202b3e">
      <circle cx="427" cy="321" r="25"/>
      <circle cx="773" cy="321" r="25"/>
    </g>
    <path d="M210 457h780l-72 118H282z" fill="#d2b990" stroke="#9d896f" stroke-width="5"/>
    <path d="M415 457v118m370-118v118" stroke="#9d896f" stroke-width="5"/>
    <circle cx="207" cy="561" r="13" fill="#5e655f"/>
    <circle cx="993" cy="561" r="13" fill="#5e655f"/>
    <circle cx="242" cy="251" r="10" fill="#5e655f"/>
    <circle cx="958" cy="251" r="10" fill="#5e655f"/>
  </g>
</svg>
