<svg xmlns="http://www.w3.org/2000/svg" viewBox="0 0 320 220" role="img" aria-labelledby="title desc">
  <title id="title">Caja de baterías</title>
  <desc id="desc">Caja de suministros con tres baterías y un símbolo de carga.</desc>
  <rect width="320" height="220" rx="24" fill="#071b2b"/>
  <rect x="42" y="58" width="236" height="126" rx="18" fill="#e9f4f7" stroke="#07121c" stroke-width="7"/>
  <path d="M42 92h236M118 58V41h84v17" fill="none" stroke="#07121c" stroke-width="7"/>
  <g fill="#f3c84b" stroke="#07121c" stroke-width="5">
    <rect x="79" y="112" width="42" height="52" rx="6"/>
    <rect x="139" y="112" width="42" height="52" rx="6"/>
    <rect x="199" y="112" width="42" height="52" rx="6"/>
  </g>
  <g fill="#07121c">
    <path d="M92 104h16v8H92zM152 104h16v8h-16zM212 104h16v8h-16z"/>
    <path d="M101 123l-10 20h9l-4 13 15-22h-9l5-11zM161 123l-10 20h9l-4 13 15-22h-9l5-11zM221 123l-10 20h9l-4 13 15-22h-9l5-11z"/>
  </g>
</svg>
